# xmcd
#
# Track frame offsets: 
#        150
#        12874
#        25477
#        46359
#        60592
#        70029
#        83999
#        103723
#        117657
#        134838
#
# Disc length: 2037 seconds
#
# Revision: 0
# Processed by: cddbd v1.5.2PL0 Copyright (c) Steve Scherf et al.
# Submitted via: ExactAudioCopy v0.99pb4
#
DISCID=8d07f30a
DTITLE=L.R.Phoenix and Mr. Mo'Hell - WRECKED
DYEAR=2009
DGENRE=Blues
TTITLE0=Wrecked
TTITLE1=Coat And Hat
TTITLE2=Can You Hear me
TTITLE3=Don't Go
TTITLE4=On The Run
TTITLE5=Dark Clouds
TTITLE6=Red Haired Girl
TTITLE7=My Leaving
TTITLE8=Whole Night Long
TTITLE9=Missing You
EXTD=
EXTT0=
EXTT1=
EXTT2=
EXTT3=
EXTT4=
EXTT5=
EXTT6=
EXTT7=
EXTT8=
EXTT9=
PLAYORDER=
